<?xml version="1.0" encoding="utf-8"?>


<!-- License: CC Attribution. Made by wishforge.games: https://www.wishforge.games/ -->
<svg version="1.1" id="Icons" xmlns="http://www.w3.org/2000/svg" xmlns:xlink="http://www.w3.org/1999/xlink" height="20" width="20"
	 viewBox="0 0 32 32" xml:space="preserve">
<style type="text/css">
	.st0{fill:none;stroke:#454242;stroke-width:2;stroke-linecap:round;stroke-linejoin:round;stroke-miterlimit:10;}
</style>
<ellipse transform="matrix(0.7071 -0.7071 0.7071 0.7071 3.2721 20.1005)" class="st0" cx="25.9" cy="6.1" rx="3" ry="4"/>
<path class="st0" d="M8.9,28.7C7.8,29.9,5.5,29.6,4,28s-1.9-3.8-0.7-4.9" fill="#454242"/>
<path class="st0" d="M3.3,23.1L3.3,23.1C10.3,17,17,10.3,23.1,3.3l0,0"/>
<path class="st0" d="M8.9,28.7L8.9,28.7C15,21.7,21.7,15,28.7,8.9l0,0"/>
<path class="st0" d="M13.2,13.2L13.2,13.2C14.6,15.5,19,19,19,19"/>
<path class="st0" d="M18,25v-7l0,0c2.5,1.2,3,3.7,3,6.5V29"/>
</svg>