<svg xmlns="http://www.w3.org/2000/svg" viewBox="0 0 48 48" width="70" height="70"><g><path fill-rule="evenodd" clip-rule="evenodd" fill="#3A4D54" d="M27.675 19.05h4.238v4.313h2.138c0.975 0 1.987 -0.188 2.925 -0.488 0.45 -0.15 0.975 -0.375 1.425 -0.637 -0.6 -0.788 -0.9 -1.763 -0.975 -2.737 -0.112 -1.313 0.15 -3.037 1.05 -4.05l0.45 -0.525 0.525 0.413c1.35 1.087 2.438 2.55 2.662 4.275 1.612 -0.488 3.488 -0.375 4.912 0.45l0.563 0.338 -0.3 0.6c-1.2 2.325 -3.713 3.075 -6.15 2.925 -3.675 9.113 -11.625 13.425 -21.3 13.425 -4.988 0 -9.563 -1.875 -12.188 -6.3l-0.038 -0.075 -0.375 -0.788c-0.9 -1.95 -1.163 -4.088 -0.975 -6.225l0.075 -0.637h3.6v-4.275h4.238v-4.2h8.438v-4.238h5.063v8.438z"/><path fill="#00AADA" d="M41.4 20.663c0.3 -2.213 -1.35 -3.938 -2.4 -4.762 -1.163 1.35 -1.35 4.95 0.488 6.45 -1.05 0.9 -3.188 1.763 -5.438 1.763h-27.075c-0.225 2.325 0.188 4.463 1.125 6.3l0.3 0.563c0.188 0.338 0.413 0.637 0.637 0.975 1.125 0.075 2.138 0.112 3.075 0.075 1.838 -0.038 3.338 -0.262 4.5 -0.637 0.188 -0.075 0.338 0.038 0.413 0.188 0.075 0.188 -0.038 0.338 -0.188 0.413 -0.15 0.038 -0.3 0.112 -0.488 0.15 -0.9 0.262 -1.875 0.413 -3.113 0.488h-0.225c-0.488 0.038 -1.013 0.038 -1.575 0.038 -0.6 0 -1.163 0 -1.838 -0.038 2.25 2.55 5.775 4.05 10.2 4.05 9.375 0 17.325 -4.162 20.813 -13.462 2.513 0.262 4.912 -0.375 6 -2.513 -1.688 -1.013 -3.938 -0.675 -5.213 -0.038z"/><path fill="#28B8EB" d="M41.4 20.663c0.3 -2.213 -1.35 -3.938 -2.4 -4.762 -1.163 1.35 -1.35 4.95 0.488 6.45 -1.05 0.9 -3.188 1.763 -5.438 1.763h-25.5c-0.112 3.563 1.2 6.262 3.563 7.875 1.838 -0.038 3.338 -0.262 4.5 -0.637 0.188 -0.075 0.338 0.038 0.413 0.188 0.075 0.188 -0.038 0.338 -0.188 0.413 -0.15 0.038 -0.3 0.112 -0.488 0.15 -0.9 0.262 -1.95 0.45 -3.188 0.525l-0.038 -0.038c3.188 1.65 7.8 1.612 13.125 -0.413 5.925 -2.287 11.475 -6.637 15.337 -11.587 -0.075 0.038 -0.15 0.038 -0.188 0.075z"/><path fill="#028BB8" d="M7.012 26.925c0.15 1.237 0.525 2.4 1.087 3.488l0.3 0.563c0.188 0.338 0.413 0.637 0.637 0.975 1.125 0.075 2.138 0.112 3.075 0.075 1.838 -0.038 3.338 -0.262 4.5 -0.637 0.188 -0.075 0.338 0.038 0.413 0.188 0.075 0.188 -0.038 0.338 -0.188 0.413 -0.15 0.038 -0.3 0.112 -0.488 0.15 -0.9 0.262 -1.95 0.45 -3.188 0.525h-0.15c-0.488 0.038 -1.013 0.038 -1.537 0.038 -0.6 0 -1.2 0 -1.838 -0.038 2.25 2.55 5.813 4.05 10.238 4.05 8.025 0 15 -3.037 19.05 -9.75h-31.912v-0.038z"/><path fill="#019BC6" d="M8.813 26.925c0.488 2.175 1.612 3.9 3.3 5.063 1.838 -0.038 3.338 -0.262 4.5 -0.637 0.188 -0.075 0.338 0.038 0.413 0.188 0.075 0.188 -0.038 0.338 -0.188 0.413 -0.15 0.038 -0.3 0.112 -0.488 0.15 -0.9 0.262 -1.95 0.45 -3.225 0.525 3.188 1.65 7.8 1.612 13.087 -0.413 3.188 -1.237 6.3 -3.075 9.075 -5.287h-26.475z"/><path fill-rule="evenodd" clip-rule="evenodd" fill="#00ACD3" d="M10.65 19.763h3.675v3.675h-3.675v-3.675zm0.3 0.3h0.3v3.037h-0.3v-3.037zm0.525 0h0.3v3.037h-0.3v-3.037zm0.563 0h0.3v3.037h-0.3v-3.037zm0.563 0h0.3v3.037h-0.3v-3.037zm0.563 0h0.3v3.037h-0.3v-3.037zm0.563 0h0.3v3.037h-0.3v-3.037zM14.85 15.563h3.675v3.675h-3.675v-3.675zm0.338 0.3h0.3v3.037h-0.3v-3.037zm0.525 0h0.3v3.037h-0.3v-3.037zm0.563 0h0.3v3.037h-0.3v-3.037zm0.563 0h0.3v3.037h-0.3v-3.037zm0.525 0h0.3v3.037h-0.3v-3.037zm0.563 0h0.3v3.037h-0.3v-3.037z"/><path fill-rule="evenodd" clip-rule="evenodd" fill="#23C2EE" d="M14.85 19.763h3.675v3.675h-3.675v-3.675zm0.338 0.3h0.3v3.037h-0.3v-3.037zm0.525 0h0.3v3.037h-0.3v-3.037zm0.563 0h0.3v3.037h-0.3v-3.037zm0.563 0h0.3v3.037h-0.3v-3.037zm0.525 0h0.3v3.037h-0.3v-3.037zm0.563 0h0.3v3.037h-0.3v-3.037z"/><path fill-rule="evenodd" clip-rule="evenodd" fill="#00ACD3" d="M19.087 19.763h3.675v3.675h-3.675v-3.675zm0.3 0.3h0.3v3.037h-0.3v-3.037zm0.563 0h0.3v3.037h-0.3v-3.037zm0.563 0h0.3v3.037h-0.3v-3.037zm0.525 0h0.3v3.037h-0.3v-3.037zm0.563 0h0.3v3.037h-0.3v-3.037zm0.563 0h0.3v3.037h-0.3v-3.037z"/><path fill-rule="evenodd" clip-rule="evenodd" fill="#23C2EE" d="M19.087 15.563h3.675v3.675h-3.675v-3.675zm0.3 0.3h0.3v3.037h-0.3v-3.037zm0.563 0h0.3v3.037h-0.3v-3.037zm0.563 0h0.3v3.037h-0.3v-3.037zm0.525 0h0.3v3.037h-0.3v-3.037zm0.563 0h0.3v3.037h-0.3v-3.037zm0.563 0h0.3v3.037h-0.3v-3.037zM23.325 19.763h3.675v3.675h-3.675v-3.675zm0.3 0.3h0.3v3.037h-0.3v-3.037zm0.563 0h0.3v3.037h-0.3v-3.037zm0.525 0h0.3v3.037h-0.3v-3.037zm0.563 0h0.3v3.037h-0.3v-3.037zm0.563 0h0.3v3.037h-0.3v-3.037zm0.563 0h0.3v3.037h-0.3v-3.037z"/><path fill-rule="evenodd" clip-rule="evenodd" fill="#00ACD3" d="M23.325 15.563h3.675v3.675h-3.675v-3.675zm0.3 0.3h0.3v3.037h-0.3v-3.037zm0.563 0h0.3v3.037h-0.3v-3.037zm0.525 0h0.3v3.037h-0.3v-3.037zm0.563 0h0.3v3.037h-0.3v-3.037zm0.563 0h0.3v3.037h-0.3v-3.037zm0.563 0h0.3v3.037h-0.3v-3.037z"/><path fill-rule="evenodd" clip-rule="evenodd" fill="#23C2EE" d="M23.325 11.325h3.675v3.675h-3.675v-3.675zm0.3 0.3h0.3v3.037h-0.3v-3.037zm0.563 0h0.3v3.037h-0.3v-3.037zm0.525 0h0.3v3.037h-0.3v-3.037zm0.563 0h0.3v3.037h-0.3v-3.037zm0.563 0h0.3v3.037h-0.3v-3.037zm0.563 0h0.3v3.037h-0.3v-3.037z"/><path fill-rule="evenodd" clip-rule="evenodd" fill="#00ACD3" d="M27.563 19.763h3.675v3.675h-3.675v-3.675zm0.3 0.3h0.3v3.037h-0.3v-3.037zm0.525 0h0.3v3.037h-0.3v-3.037zm0.563 0h0.3v3.037h-0.3v-3.037zm0.563 0h0.3v3.037h-0.3v-3.037zm0.563 0h0.3v3.037h-0.3v-3.037zm0.563 0h0.3v3.037h-0.3v-3.037z"/><path fill-rule="evenodd" clip-rule="evenodd" fill="#D4EEF1" d="M18.3 29.362c0.563 0 1.013 0.45 1.013 1.013 0 0.563 -0.45 1.013 -1.013 1.013 -0.563 0 -1.013 -0.45 -1.013 -1.013 0 -0.563 0.45 -1.013 1.013 -1.013"/><path fill-rule="evenodd" clip-rule="evenodd" fill="#3A4D54" d="M18.3 29.662c0.075 0 0.188 0 0.262 0.038 -0.075 0.038 -0.15 0.15 -0.15 0.262 0 0.15 0.15 0.3 0.3 0.3 0.112 0 0.225 -0.075 0.262 -0.15 0.038 0.075 0.038 0.188 0.038 0.262 0 0.413 -0.338 0.712 -0.712 0.712 -0.413 0 -0.712 -0.338 -0.712 -0.712 0 -0.375 0.3 -0.712 0.712 -0.712M0.413 27.3h47.025c-1.013 -0.262 -3.225 -0.6 -2.888 -1.95 -1.875 2.138 -6.337 1.5 -7.5 0.45 -1.275 1.838 -8.625 1.125 -9.113 -0.3 -1.575 1.875 -6.488 1.875 -8.063 0 -0.525 1.425 -7.875 2.138 -9.113 0.3 -1.125 1.05 -5.625 1.688 -7.5 -0.45 0.413 1.313 -1.838 1.688 -2.85 1.95"/><path fill="#BFDBE0" d="M21 36.675c-2.513 -1.2 -3.863 -2.813 -4.65 -4.575 -0.938 0.262 -2.063 0.45 -3.338 0.525 -0.488 0.038 -1.013 0.038 -1.537 0.038 -0.637 0 -1.275 0 -1.95 -0.038 2.25 2.25 5.1 4.012 10.313 4.05h1.163z"/><path fill="#D4EEF1" d="M17.288 33.713c-0.338 -0.488 -0.675 -1.05 -0.938 -1.612 -0.938 0.262 -2.063 0.45 -3.338 0.525 0.862 0.45 2.138 0.9 4.275 1.087z"/></g></svg>