<svg xmlns="http://www.w3.org/2000/svg" role="img" viewBox="0 0 24 24" fill="none" stroke="#fff" stroke-width="2" stroke-linecap="round" stroke-linejoin="round" class="feather feather-instagram" width="24" height="24"><title>Instagram</title><path x="2" y="2" width="20" height="20" rx="5" ry="5" d="M7 2H17A5 5 0 0 1 22 7V17A5 5 0 0 1 17 22H7A5 5 0 0 1 2 17V7A5 5 0 0 1 7 2z"/><path d="M16 11.37A4 4 0 1 1 12.63 8 4 4 0 0 1 16 11.37z"/><path x1="17.5" y1="6.5" x2="17.51" y2="6.5" d="M17.5 6.5L17.51 6.5"/></svg>