<svg width="12px" height="12px" viewBox="-0.75 0 12 12" xmlns="http://www.w3.org/2000/svg"><path d="M10.315 8.325l-0.919 -0.539 0.799 -0.218c0.197 -0.054 0.314 -0.26 0.26 -0.459l-0.096 -0.363c-0.052 -0.199 -0.255 -0.319 -0.452 -0.265L8.039 6.989 6.356 6l1.685 -0.989 1.868 0.509c0.197 0.054 0.398 -0.066 0.452 -0.265l0.096 -0.363c0.052 -0.199 -0.063 -0.405 -0.26 -0.459l-0.799 -0.218 0.919 -0.539c0.176 -0.103 0.237 -0.333 0.136 -0.513l-0.185 -0.326c-0.101 -0.18 -0.328 -0.241 -0.504 -0.138l-0.919 0.539 0.213 -0.813c0.052 -0.199 -0.063 -0.405 -0.26 -0.459l-0.356 -0.096c-0.197 -0.054 -0.398 0.066 -0.452 0.265l-0.499 1.898 -1.685 0.989v-1.98L7.172 1.65c0.143 -0.145 0.143 -0.384 0 -0.53l-0.26 -0.265c-0.143 -0.145 -0.377 -0.145 -0.52 0l-0.584 0.595V0.375c0 -0.206 -0.164 -0.375 -0.368 -0.375h-0.368c-0.204 0 -0.368 0.169 -0.368 0.375v1.08l-0.584 -0.595c-0.143 -0.145 -0.377 -0.145 -0.52 0L3.33 1.125c-0.143 0.145 -0.143 0.384 0 0.53l1.366 1.39v1.98l-1.685 -0.989 -0.499 -1.898c-0.052 -0.199 -0.255 -0.319 -0.452 -0.265L1.704 1.969c-0.197 0.054 -0.314 0.26 -0.26 0.459l0.213 0.813 -0.919 -0.539c-0.176 -0.103 -0.401 -0.042 -0.504 0.138l-0.185 0.326c-0.101 0.18 -0.042 0.408 0.136 0.513l0.919 0.539 -0.799 0.213c-0.197 0.054 -0.314 0.26 -0.26 0.459L0.141 5.255c0.052 0.199 0.255 0.319 0.452 0.265l1.868 -0.509 1.685 0.989 -1.685 0.989 -1.868 -0.509c-0.197 -0.054 -0.398 0.066 -0.452 0.265l-0.096 0.363c-0.052 0.199 0.063 0.405 0.26 0.459l0.799 0.218 -0.919 0.539c-0.176 0.103 -0.237 0.333 -0.136 0.513L0.234 9.164c0.101 0.18 0.328 0.241 0.504 0.138l0.919 -0.539 -0.213 0.813c-0.052 0.199 0.063 0.405 0.26 0.459l0.356 0.096c0.197 0.054 0.398 -0.066 0.452 -0.265l0.499 -1.898 1.685 -0.989v1.98l-1.366 1.39c-0.143 0.145 -0.143 0.384 0 0.53l0.26 0.265c0.143 0.145 0.377 0.145 0.52 0l0.584 -0.595V11.625c0 0.206 0.164 0.375 0.368 0.375h0.368c0.204 0 0.368 -0.169 0.368 -0.375v-1.08l0.584 0.595c0.143 0.145 0.377 0.145 0.52 0l0.26 -0.265c0.143 -0.145 0.143 -0.384 0 -0.53l-1.366 -1.39v-1.98l1.685 0.989 0.499 1.898c0.052 0.199 0.255 0.319 0.452 0.265L8.789 10.031c0.197 -0.054 0.314 -0.26 0.26 -0.459l-0.213 -0.813 0.919 0.539c0.176 0.103 0.401 0.042 0.504 -0.138l0.185 -0.326c0.108 -0.176 0.049 -0.405 -0.129 -0.509z" fill="#FFF"/></svg>