
<svg width="65px" height="65px" viewBox="0 -24.565 65 65" version="1.1" xmlns="http://www.w3.org/2000/svg" xmlns:xlink="http://www.w3.org/1999/xlink" preserveAspectRatio="xMidYMid"><g><path d="M34.151 12.608C33.085 13.332 31.629 13.055 30.904 11.989C30.179 10.922 30.457 9.466 31.523 8.74C32.589 8.016 34.045 8.294 34.77 9.36C35.496 10.426 35.218 11.883 34.151 12.608M35.597 8.798C34.562 7.272 32.485 6.878 30.961 7.914C29.436 8.95 29.04 11.027 30.077 12.551C30.994 13.901 32.726 14.364 34.168 13.735L35.459 15.833L36.484 15.136L35.193 13.039C36.309 11.929 36.516 10.147 35.597 8.798M0 13.473C0.48 13.733 1.22 13.927 2.05 13.927C3.866 13.927 4.787 13.058 4.787 11.864C4.774 10.943 4.281 10.333 3.075 9.918C2.296 9.659 2.05 9.49 2.05 9.192C2.05 8.88 2.322 8.686 2.802 8.686C3.334 8.686 3.892 8.893 4.178 9.036L4.515 7.687C4.126 7.492 3.477 7.311 2.738 7.311C1.168 7.311 0.156 8.206 0.156 9.399C0.143 10.139 0.649 10.852 1.972 11.294C2.699 11.527 2.893 11.696 2.893 12.02C2.893 12.344 2.647 12.539 2.05 12.539C1.466 12.539 0.714 12.293 0.35 12.072L0 13.473ZM8.277 13.94C9.964 13.94 11.612 12.876 11.612 10.567C11.612 8.647 10.314 7.311 8.381 7.311C6.331 7.311 4.982 8.621 4.982 10.671C4.982 12.721 6.409 13.94 8.264 13.94L8.277 13.94ZM8.303 12.526C7.473 12.526 7.019 11.709 7.019 10.632C7.019 9.685 7.382 8.725 8.316 8.725C9.212 8.725 9.575 9.685 9.575 10.619C9.575 11.761 9.095 12.526 8.316 12.526L8.303 12.526ZM12.183 13.798L14.155 13.798L14.155 10.139C14.155 9.957 14.168 9.776 14.22 9.646C14.362 9.283 14.687 8.906 15.232 8.906C15.945 8.906 16.231 9.464 16.231 10.282L16.231 13.798L18.203 13.798L18.203 10.048C18.203 8.18 17.23 7.311 15.932 7.311C14.868 7.311 14.233 7.92 13.973 8.335L13.934 8.335L13.843 7.453L12.131 7.453C12.157 8.024 12.183 8.686 12.183 9.477L12.183 13.798ZM24.417 10.048C24.417 8.556 23.756 7.311 21.641 7.311C20.486 7.311 19.617 7.635 19.176 7.881L19.539 9.14C19.954 8.893 20.642 8.673 21.29 8.673C22.263 8.673 22.445 9.153 22.445 9.49L22.445 9.568C20.201 9.568 18.722 10.346 18.722 11.994C18.722 13.006 19.487 13.94 20.771 13.94C21.524 13.94 22.173 13.668 22.588 13.162L22.627 13.162L22.744 13.798L24.521 13.798C24.443 13.447 24.417 12.863 24.417 12.267L24.417 10.048ZM22.51 11.488C22.51 11.605 22.497 11.722 22.471 11.825C22.341 12.228 21.926 12.552 21.446 12.552C21.005 12.552 20.668 12.306 20.668 11.8C20.668 11.047 21.472 10.801 22.51 10.801L22.51 11.488ZM25.338 13.798L27.31 13.798L27.31 10.593C27.31 10.424 27.323 10.282 27.349 10.152C27.479 9.529 27.972 9.153 28.699 9.153C28.919 9.153 29.075 9.179 29.231 9.205L29.231 7.349C29.088 7.323 28.997 7.311 28.815 7.311C28.193 7.311 27.427 7.7 27.103 8.634L27.051 8.634L26.973 7.453L25.286 7.453C25.325 7.998 25.338 8.608 25.338 9.542L25.338 13.798ZM42.104 7.553L40.962 7.553L40.962 11.394C40.962 11.614 40.923 11.822 40.858 11.977C40.651 12.496 40.119 13.028 39.353 13.028C38.328 13.028 37.952 12.211 37.952 11.017L37.952 7.553L36.81 7.553L36.81 11.225C36.81 13.418 37.991 13.975 38.977 13.975C40.093 13.975 40.768 13.314 41.053 12.808L41.079 12.808L41.144 13.833L42.156 13.833C42.117 13.34 42.104 12.769 42.104 12.107L42.104 7.553ZM43.349 12.211C43.349 12.769 43.336 13.405 43.297 13.833L44.283 13.833L44.348 12.795L44.374 12.795C44.854 13.625 45.568 13.975 46.476 13.975C47.877 13.975 49.304 12.86 49.304 10.602C49.304 8.708 48.215 7.411 46.658 7.411C45.646 7.411 44.919 7.852 44.517 8.552L44.491 8.552L44.491 4.621L43.349 4.621L43.349 12.211ZM44.491 10.187C44.491 10.005 44.517 9.85 44.556 9.707C44.776 8.851 45.503 8.306 46.281 8.306C47.501 8.306 48.15 9.383 48.15 10.654C48.15 12.094 47.449 13.067 46.243 13.067C45.425 13.067 44.751 12.522 44.53 11.731C44.504 11.601 44.491 11.458 44.491 11.316L44.491 10.187ZM55.13 10.901C55.156 10.771 55.169 10.602 55.169 10.369C55.169 9.214 54.637 7.411 52.587 7.411C50.758 7.411 49.629 8.903 49.629 10.797C49.629 12.678 50.796 13.962 52.717 13.962C53.716 13.962 54.416 13.742 54.818 13.56L54.611 12.743C54.196 12.925 53.69 13.067 52.872 13.067C51.731 13.067 50.758 12.432 50.732 10.901L55.13 10.901ZM50.745 10.083C50.835 9.292 51.328 8.228 52.496 8.228C53.768 8.228 54.079 9.357 54.066 10.083L50.745 10.083Z" fill="#070707"/><path d="M63.057 13.811L62.259 13.811C62.259 7.384 56.956 2.155 50.438 2.155L50.438 1.357C57.396 1.357 63.057 6.943 63.057 13.811ZM63.608 9.524C62.651 5.492 59.384 2.127 55.287 0.951L55.471 0.311C59.794 1.553 63.243 5.108 64.255 9.37L63.608 9.524ZM64.507 5.74C63.52 3.588 61.836 1.71 59.771 0.455L60.047 0C62.204 1.311 63.958 3.27 64.989 5.518L64.507 5.74Z" fill="#499CD2" fill-rule="nonzero"/></g></svg>