<svg width="48px" height="48px" viewBox="0 0 48 48" xmlns="http://www.w3.org/2000/svg"><path d="M40.41 32.784c-4.938 6.578 -15.482 4.358 -22.244 4.676 0 0 -1.198 0.068 -2.402 0.266 0 0 0.456 -0.194 1.038 -0.396 4.748 -1.642 6.992 -1.972 9.878 -3.454 5.42 -2.776 10.816 -8.826 11.914 -15.11 -2.064 6.044 -8.34 11.246 -14.054 13.358 -3.91 1.444 -10.984 2.848 -10.986 2.848a10.56 10.56 0 0 1 -0.286 -0.152c-4.81 -2.34 -4.95 -12.76 3.788 -16.118 3.832 -1.472 7.494 -0.664 11.636 -1.65 4.416 -1.05 9.532 -4.36 11.61 -8.688 2.33 6.916 5.13 17.732 0.108 24.42zm0.084 -26.56a18.424 18.424 0 0 1 -2.13 3.78 19.964 19.964 0 0 0 -14.334 -6.062C12.984 3.942 4 12.926 4 23.97a19.966 19.966 0 0 0 6.41 14.668l0.44 0.388a1.712 1.712 0 1 1 0.002 0.002l0.298 0.264A19.92 19.92 0 0 0 24.03 44c10.556 0 19.226 -8.216 19.968 -18.584 0.548 -5.078 -0.952 -11.526 -3.504 -19.192" fill="#6CAF41"/></svg>