<svg version="1.1" id="Layer_1" xmlns="http://www.w3.org/2000/svg" xmlns:xlink="http://www.w3.org/1999/xlink" x="0px" y="0px" viewBox="0 0 48 37.334" style="enable-background:new 0 0 90 70;" xml:space="preserve" width="48" height="37.334"><style type="text/css">
	.st0{fill:#2A4C87;}
	.st1{fill:#2E4E88;}
	.st2{fill:#1F3D70;}
	.st3{fill:#194C88;}
	.st4{fill:#3468A3;}
	.st5{fill:#4C8DCB;}
	.st6{fill:#3498B3;}
	.st7{fill:#0AA496;}
	.st8{fill:#00AA75;}
	.st9{fill:#4FBA6A;}
	.st10{fill:#7EC45F;}
	.st11{fill:#4C609B;}
	.st12{fill:#54669F;}
	.st13{fill:#746FA7;}
	.st14{fill:#99558E;}
	.st15{fill:#AF3379;}
	.st16{fill:#BE266A;}
	.st17{fill:#D4525C;}
	.st18{fill:#E0654F;}
	.st19{fill:#F57F2A;}
	.st20{fill:#F89828;}
	.st21{fill:#FEC127;}
	.st22{fill:#FED627;}
	.st23{fill:#351A55;}
</style><g><path class="st0" d="M42.774 14.774c0.266 0.96 1.28 1.546 2.24 1.28c0.96 -0.266 1.546 -1.28 1.28 -2.24c-0.266 -0.96 -1.28 -1.546 -2.24 -1.28l0 0C43.094 12.746 42.506 13.76 42.774 14.774z"/><path class="st0" d="M40.266 16.694c0.64 -0.16 1.066 -0.854 0.906 -1.546c-0.16 -0.64 -0.854 -1.066 -1.546 -0.906c-0.64 0.16 -1.066 0.854 -0.906 1.546l0 0C38.88 16.48 39.574 16.906 40.266 16.694z"/><path class="st0" d="M36.586 17.334c0.48 -0.16 0.8 -0.64 0.64 -1.12c-0.16 -0.48 -0.64 -0.8 -1.12 -0.64c-0.48 0.16 -0.8 0.64 -0.64 1.12l0 0C35.574 17.174 36.106 17.494 36.586 17.334z"/><path class="st1" d="M33.706 17.814c0.32 -0.106 0.48 -0.426 0.426 -0.694c-0.054 -0.32 -0.426 -0.48 -0.694 -0.426c-0.32 0.106 -0.48 0.426 -0.426 0.694C33.066 17.654 33.386 17.866 33.706 17.814z"/><path class="st2" d="M41.386 11.04c0.48 0.8 1.494 1.066 2.294 0.64c0.8 -0.48 1.066 -1.494 0.64 -2.294c-0.48 -0.8 -1.494 -1.066 -2.294 -0.64l0 0C41.226 9.174 40.96 10.24 41.386 11.04z"/><path class="st2" d="M37.706 13.12c0.32 0.586 1.014 0.746 1.6 0.426c0.586 -0.32 0.746 -1.014 0.426 -1.6c-0.32 -0.586 -1.014 -0.746 -1.6 -0.426l0 0C37.6 11.84 37.386 12.586 37.706 13.12z"/><path class="st2" d="M35.094 13.706c-0.426 0.214 -0.534 0.746 -0.32 1.12c0.214 0.426 0.746 0.534 1.12 0.32c0.426 -0.214 0.534 -0.746 0.32 -1.12l0 0C36 13.6 35.466 13.494 35.094 13.706z"/><path class="st2" d="M32.746 15.414c-0.266 0.16 -0.374 0.48 -0.214 0.746c0.16 0.266 0.48 0.374 0.746 0.214c0.266 -0.16 0.374 -0.48 0.214 -0.746l0 0C33.334 15.36 32.96 15.254 32.746 15.414z"/><path class="st3" d="M41.226 7.734c0.586 -0.586 0.586 -1.546 0 -2.134c-0.586 -0.586 -1.546 -0.586 -2.134 0c-0.586 0.586 -0.586 1.546 0 2.134C39.68 8.32 40.64 8.32 41.226 7.734L41.226 7.734z"/><path class="st3" d="M37.546 9.28c-0.426 -0.426 -1.12 -0.426 -1.546 0c-0.426 0.426 -0.426 1.12 0 1.546c0.426 0.426 1.12 0.426 1.546 0l0 0C37.974 10.4 37.974 9.706 37.546 9.28z"/><path class="st3" d="M33.6 12.16c-0.32 0.32 -0.32 0.8 0 1.066c0.32 0.32 0.8 0.32 1.066 0c0.32 -0.32 0.32 -0.8 0 -1.066C34.4 11.84 33.92 11.84 33.6 12.16z"/><path class="st3" d="M31.734 15.04c0.214 0.214 0.534 0.214 0.694 0c0.214 -0.214 0.214 -0.534 0 -0.694c-0.214 -0.214 -0.534 -0.214 -0.694 0C31.574 14.56 31.574 14.88 31.734 15.04L31.734 15.04z"/><path class="st4" d="M35.946 5.226c0.694 0.374 1.546 0.16 1.92 -0.534c0.374 -0.694 0.16 -1.546 -0.534 -1.92c-0.694 -0.374 -1.546 -0.16 -1.92 0.534l0 0C34.986 3.946 35.254 4.8 35.946 5.226C35.894 5.226 35.946 5.226 35.946 5.226z"/><path class="st4" d="M33.386 7.626c-0.266 0.48 -0.106 1.12 0.374 1.386c0.48 0.266 1.12 0.106 1.386 -0.374c0.266 -0.48 0.106 -1.12 -0.374 -1.386C34.24 6.934 33.654 7.146 33.386 7.626L33.386 7.626z"/><path class="st4" d="M32.694 10.72c-0.32 -0.16 -0.746 -0.054 -0.906 0.266c-0.16 0.32 -0.054 0.746 0.266 0.906c0.32 0.16 0.746 0.054 0.906 -0.266C33.12 11.36 33.014 10.934 32.694 10.72z"/><path class="st4" d="M31.146 13.44c-0.214 -0.106 -0.48 -0.054 -0.64 0.16c-0.106 0.214 -0.054 0.48 0.16 0.64s0.48 0.054 0.64 -0.16C31.466 13.814 31.36 13.546 31.146 13.44L31.146 13.44z"/><path class="st5" d="M32.16 3.574c0.694 0.214 1.44 -0.214 1.654 -0.96c0.214 -0.694 -0.214 -1.44 -0.96 -1.654c-0.694 -0.16 -1.44 0.214 -1.654 0.96l0 0C31.04 2.666 31.466 3.36 32.16 3.574z"/><path class="st5" d="M31.04 7.786c0.48 0.16 1.014 -0.16 1.12 -0.64c0.16 -0.48 -0.16 -1.014 -0.64 -1.12c-0.48 -0.16 -1.014 0.16 -1.12 0.64l0 0C30.294 7.146 30.56 7.626 31.04 7.786z"/><path class="st5" d="M30.186 11.094c0.32 0.106 0.694 -0.106 0.746 -0.426c0.106 -0.32 -0.106 -0.694 -0.426 -0.746c-0.32 -0.106 -0.694 0.106 -0.746 0.426C29.654 10.666 29.814 10.986 30.186 11.094z"/><path class="st5" d="M29.174 13.174c-0.054 0.214 0.054 0.48 0.32 0.534c0.214 0.054 0.48 -0.054 0.534 -0.32c0.054 -0.214 -0.054 -0.48 -0.32 -0.534l0 0C29.494 12.8 29.226 12.96 29.174 13.174z"/><path class="st6" d="M28.106 2.934c0.694 0 1.28 -0.586 1.28 -1.28S28.8 0.426 28.106 0.426s-1.28 0.586 -1.28 1.28l0 0C26.88 2.4 27.466 2.934 28.106 2.934L28.106 2.934z"/><path class="st6" d="M28.106 5.654c-0.48 0 -0.854 0.374 -0.854 0.854c0 0.48 0.374 0.854 0.854 0.854s0.854 -0.374 0.854 -0.854l0 0C28.96 6.026 28.586 5.654 28.106 5.654z"/><path class="st6" d="M28.694 10.186c0 -0.32 -0.266 -0.586 -0.586 -0.586s-0.586 0.266 -0.586 0.586s0.266 0.586 0.586 0.586l0 0C28.48 10.774 28.694 10.506 28.694 10.186L28.694 10.186z"/><path class="st6" d="M28.106 12.694c-0.214 0 -0.374 0.16 -0.374 0.374c0 0.214 0.16 0.374 0.374 0.374s0.374 -0.16 0.374 -0.374l0 0C28.534 12.854 28.32 12.694 28.106 12.694z"/><path class="st7" d="M24.054 3.414c0.64 -0.16 1.014 -0.8 0.8 -1.44c-0.16 -0.64 -0.8 -1.014 -1.44 -0.8s-1.014 0.8 -0.8 1.44l0 0C22.774 3.2 23.414 3.574 24.054 3.414z"/><path class="st7" d="M24.266 7.094c0.106 0.426 0.534 0.64 0.906 0.534c0.426 -0.106 0.64 -0.534 0.534 -0.906c-0.106 -0.426 -0.534 -0.64 -0.906 -0.534l0 0C24.374 6.294 24.16 6.666 24.266 7.094z"/><path class="st7" d="M25.386 10.614c0.054 0.32 0.374 0.48 0.64 0.374c0.32 -0.054 0.48 -0.374 0.374 -0.64c-0.054 -0.32 -0.374 -0.48 -0.64 -0.374C25.494 10.026 25.334 10.346 25.386 10.614C25.386 10.614 25.386 10.614 25.386 10.614z"/><path class="st7" d="M26.346 13.386c0.054 0.16 0.214 0.266 0.426 0.214c0.16 -0.054 0.266 -0.214 0.214 -0.426c-0.054 -0.16 -0.214 -0.266 -0.426 -0.214l0 0C26.4 13.014 26.294 13.174 26.346 13.386z"/><path class="st8" d="M20.214 4.96c0.534 -0.32 0.694 -0.96 0.426 -1.494s-0.96 -0.694 -1.494 -0.426c-0.534 0.32 -0.694 0.96 -0.426 1.494l0 0C18.986 5.066 19.68 5.226 20.214 4.96z"/><path class="st8" d="M22.346 8.694c0.32 -0.16 0.426 -0.586 0.266 -0.906c-0.16 -0.32 -0.586 -0.426 -0.906 -0.266c-0.32 0.16 -0.426 0.586 -0.266 0.906l0 0C21.654 8.746 22.026 8.854 22.346 8.694L22.346 8.694z"/><path class="st8" d="M24.16 11.786c0.266 -0.16 0.32 -0.426 0.16 -0.694c-0.16 -0.266 -0.426 -0.32 -0.694 -0.16s-0.32 0.426 -0.16 0.694l0 0C23.574 11.84 23.894 11.894 24.16 11.786L24.16 11.786z"/><path class="st8" d="M25.6 13.706c-0.106 -0.16 -0.266 -0.16 -0.426 -0.106C25.066 13.654 25.014 13.866 25.066 13.974c0.106 0.16 0.266 0.16 0.374 0.106C25.6 14.026 25.654 13.814 25.6 13.706z"/><path class="st9" d="M16.854 7.414c0.374 -0.374 0.374 -1.014 0 -1.44c-0.374 -0.374 -1.014 -0.374 -1.44 0c-0.374 0.374 -0.374 1.014 0 1.44l0 0C15.84 7.786 16.48 7.786 16.854 7.414z"/><path class="st9" d="M19.946 9.654c-0.214 -0.214 -0.586 -0.214 -0.8 0c-0.214 0.214 -0.214 0.586 0 0.8c0.214 0.214 0.586 0.214 0.8 0l0 0C20.16 10.24 20.16 9.866 19.946 9.654z"/><path class="st9" d="M22.454 12.374c-0.16 -0.16 -0.48 -0.16 -0.64 0s-0.16 0.48 0 0.64s0.48 0.16 0.64 0C22.614 12.854 22.614 12.534 22.454 12.374L22.454 12.374z"/><path class="st9" d="M24.374 14.56c-0.106 -0.106 -0.266 -0.106 -0.32 0c-0.106 0.106 -0.106 0.266 0 0.32s0.266 0.106 0.32 0C24.48 14.826 24.48 14.666 24.374 14.56z"/><path class="st10" d="M12.96 10.986c0.426 0.266 1.014 0.106 1.28 -0.32c0.266 -0.426 0.106 -1.014 -0.32 -1.28c-0.426 -0.266 -1.014 -0.106 -1.28 0.32l0 0C12.374 10.134 12.534 10.72 12.96 10.986z"/><path class="st10" d="M17.814 12.16c-0.266 -0.16 -0.534 -0.054 -0.694 0.16c-0.16 0.266 -0.054 0.534 0.16 0.694c0.266 0.16 0.534 0.054 0.694 -0.16C18.134 12.586 18.026 12.32 17.814 12.16z"/><path class="st10" d="M21.014 14.08c-0.214 -0.106 -0.48 -0.054 -0.586 0.16c-0.106 0.214 -0.054 0.48 0.16 0.586c0.214 0.106 0.48 0.054 0.586 -0.16C21.28 14.454 21.174 14.186 21.014 14.08L21.014 14.08z"/><path class="st11" d="M45.12 16.64c-1.12 0 -2.026 0.906 -2.026 2.026c0 1.12 0.906 2.026 2.026 2.026c1.12 0 2.026 -0.906 2.026 -2.026C47.146 17.546 46.24 16.64 45.12 16.64L45.12 16.64z"/><path class="st11" d="M41.814 18.666c0 -0.8 -0.64 -1.44 -1.44 -1.44c-0.8 0 -1.44 0.64 -1.44 1.44c0 0.8 0.64 1.44 1.44 1.44l0 0C41.174 20.106 41.814 19.466 41.814 18.666z"/><path class="st11" d="M36.64 17.706c-0.534 0 -0.96 0.426 -0.96 0.96c0 0.534 0.426 0.96 0.96 0.96s0.96 -0.426 0.96 -0.96C37.654 18.134 37.174 17.706 36.64 17.706z"/><path class="st12" d="M34.4 18.666c0 -0.374 -0.266 -0.64 -0.64 -0.64c-0.374 0 -0.64 0.266 -0.64 0.64c0 0.374 0.266 0.64 0.64 0.64l0 0C34.134 19.306 34.4 19.04 34.4 18.666L34.4 18.666z"/><path class="st13" d="M45.014 21.28c-0.96 -0.266 -1.974 0.32 -2.24 1.28c-0.266 0.96 0.32 1.974 1.28 2.24c0.96 0.266 1.974 -0.32 2.24 -1.28c0 0 0 0 0 0C46.614 22.56 45.974 21.546 45.014 21.28z"/><path class="st13" d="M39.626 23.04c0.64 0.16 1.334 -0.214 1.546 -0.906c0.16 -0.64 -0.214 -1.334 -0.906 -1.546c-0.64 -0.16 -1.334 0.214 -1.546 0.906C38.56 22.186 38.934 22.826 39.626 23.04L39.626 23.04z"/><path class="st13" d="M36.106 21.76c0.48 0.16 1.014 -0.16 1.12 -0.64c0.16 -0.48 -0.16 -1.014 -0.64 -1.12c-0.48 -0.16 -1.014 0.16 -1.12 0.64C35.306 21.12 35.626 21.6 36.106 21.76L36.106 21.76z"/><path class="st13" d="M33.386 20.694c0.32 0.106 0.64 -0.106 0.694 -0.426c0.106 -0.32 -0.106 -0.64 -0.426 -0.694c-0.32 -0.106 -0.64 0.106 -0.694 0.426C32.906 20.266 33.12 20.586 33.386 20.694C33.386 20.694 33.386 20.694 33.386 20.694z"/><path class="st14" d="M43.68 25.706c-0.8 -0.48 -1.814 -0.16 -2.294 0.64c-0.48 0.8 -0.16 1.814 0.64 2.294c0.8 0.48 1.814 0.16 2.294 -0.64C44.746 27.2 44.48 26.186 43.68 25.706z"/><path class="st14" d="M39.734 25.334c0.32 -0.586 0.16 -1.28 -0.426 -1.6c-0.586 -0.32 -1.28 -0.16 -1.6 0.426c-0.32 0.586 -0.16 1.28 0.426 1.6l0 0C38.72 26.134 39.414 25.92 39.734 25.334z"/><path class="st14" d="M36.214 23.306c0.214 -0.426 0.106 -0.906 -0.32 -1.12c-0.426 -0.214 -0.906 -0.106 -1.12 0.32c-0.214 0.426 -0.106 0.906 0.32 1.12l0 0C35.466 23.84 36 23.734 36.214 23.306z"/><path class="st14" d="M33.494 21.706c0.16 -0.266 0.054 -0.586 -0.214 -0.746c-0.266 -0.16 -0.586 -0.054 -0.746 0.214s-0.054 0.586 0.214 0.746c0 0 0 0 0 0C33.014 22.08 33.334 21.974 33.494 21.706z"/><path class="st15" d="M39.094 29.6c-0.586 0.586 -0.586 1.546 0 2.134c0.586 0.586 1.546 0.586 2.134 0c0.586 -0.586 0.586 -1.546 0 -2.134C40.64 29.014 39.68 29.014 39.094 29.6z"/><path class="st15" d="M37.546 28.054c0.426 -0.426 0.426 -1.12 0 -1.546c-0.426 -0.426 -1.12 -0.426 -1.546 0c-0.426 0.426 -0.426 1.12 0 1.546C36.426 28.48 37.12 28.48 37.546 28.054L37.546 28.054z"/><path class="st15" d="M34.666 25.174c0.32 -0.32 0.32 -0.8 0 -1.066c-0.32 -0.32 -0.8 -0.32 -1.066 0c-0.32 0.32 -0.32 0.8 0 1.066C33.92 25.494 34.4 25.494 34.666 25.174L34.666 25.174z"/><path class="st15" d="M31.734 22.986c0.214 0.214 0.534 0.214 0.694 0c0.214 -0.214 0.214 -0.534 0 -0.694c-0.214 -0.214 -0.534 -0.214 -0.694 0l0 0C31.574 22.454 31.574 22.774 31.734 22.986L31.734 22.986z"/><path class="st16" d="M35.946 32.106c-0.694 0.374 -0.906 1.28 -0.534 1.92c0.374 0.694 1.28 0.906 1.92 0.534s0.906 -1.28 0.534 -1.92l0 0C37.494 31.946 36.586 31.734 35.946 32.106L35.946 32.106z"/><path class="st16" d="M35.094 28.746c-0.266 -0.48 -0.906 -0.64 -1.386 -0.374c-0.48 0.266 -0.64 0.906 -0.374 1.386c0.266 0.48 0.906 0.64 1.386 0.374C35.2 29.814 35.414 29.226 35.094 28.746L35.094 28.746z"/><path class="st16" d="M32.694 26.614c0.32 -0.16 0.426 -0.586 0.266 -0.906c-0.16 -0.32 -0.586 -0.426 -0.906 -0.266c-0.32 0.16 -0.426 0.586 -0.266 0.906C32 26.666 32.374 26.774 32.694 26.614L32.694 26.614z"/><path class="st16" d="M30.72 23.094c-0.214 0.106 -0.32 0.426 -0.16 0.64c0.106 0.214 0.426 0.32 0.64 0.16c0.214 -0.106 0.32 -0.426 0.16 -0.64C31.2 23.04 30.934 22.986 30.72 23.094L30.72 23.094z"/><path class="st17" d="M32.16 33.76c-0.694 0.214 -1.12 0.906 -0.96 1.654c0.214 0.694 0.906 1.12 1.654 0.96c0.694 -0.214 1.12 -0.906 0.96 -1.654l0 0C33.654 33.974 32.906 33.546 32.16 33.76L32.16 33.76z"/><path class="st17" d="M31.52 31.306c0.48 -0.16 0.8 -0.64 0.64 -1.12c-0.16 -0.48 -0.64 -0.8 -1.12 -0.64c-0.48 0.16 -0.8 0.64 -0.64 1.12C30.56 31.2 31.04 31.466 31.52 31.306C31.52 31.36 31.52 31.36 31.52 31.306z"/><path class="st17" d="M30.934 26.666c-0.106 -0.32 -0.426 -0.534 -0.746 -0.426s-0.534 0.426 -0.426 0.746c0.106 0.32 0.426 0.534 0.746 0.426C30.826 27.36 31.04 27.04 30.934 26.666C30.934 26.72 30.934 26.72 30.934 26.666z"/><path class="st17" d="M29.974 23.946c-0.054 -0.214 -0.32 -0.374 -0.534 -0.32c-0.214 0.054 -0.374 0.32 -0.32 0.534c0.054 0.214 0.266 0.374 0.534 0.32C29.92 24.426 30.026 24.16 29.974 23.946L29.974 23.946z"/><path class="st18" d="M28.106 34.4c-0.694 0 -1.28 0.586 -1.28 1.28c0 0.694 0.586 1.28 1.28 1.28s1.28 -0.534 1.28 -1.28C29.386 34.934 28.854 34.4 28.106 34.4L28.106 34.4z"/><path class="st18" d="M27.306 30.88c0 0.48 0.374 0.854 0.854 0.854s0.854 -0.374 0.854 -0.854c0 -0.48 -0.374 -0.854 -0.854 -0.854l0 0C27.68 30.026 27.306 30.4 27.306 30.88z"/><path class="st18" d="M28.106 27.734c0.32 0 0.586 -0.266 0.586 -0.586s-0.266 -0.586 -0.586 -0.586c-0.32 0 -0.586 0.266 -0.586 0.586C27.574 27.466 27.786 27.734 28.106 27.734C28.106 27.734 28.106 27.734 28.106 27.734z"/><path class="st18" d="M28.106 23.894c-0.214 0 -0.374 0.16 -0.374 0.374s0.16 0.374 0.374 0.374s0.374 -0.16 0.374 -0.374l0 0C28.534 24.054 28.32 23.894 28.106 23.894z"/><path class="st19" d="M24.054 33.92c-0.64 -0.16 -1.28 0.214 -1.44 0.8c-0.16 0.64 0.214 1.28 0.8 1.44c0.64 0.16 1.28 -0.214 1.44 -0.8C25.014 34.72 24.64 34.08 24.054 33.92L24.054 33.92z"/><path class="st19" d="M25.174 29.706c-0.426 -0.106 -0.8 0.16 -0.906 0.534c-0.106 0.426 0.16 0.8 0.534 0.906c0.426 0.106 0.8 -0.16 0.906 -0.534C25.814 30.24 25.546 29.814 25.174 29.706z"/><path class="st19" d="M26.08 26.294c-0.32 -0.054 -0.586 0.106 -0.64 0.374c-0.054 0.32 0.106 0.586 0.374 0.64c0.32 0.054 0.586 -0.106 0.64 -0.374l0 0C26.56 26.72 26.346 26.4 26.08 26.294L26.08 26.294z"/><path class="st19" d="M26.986 24.16c0.054 -0.16 -0.054 -0.374 -0.214 -0.426c-0.16 -0.054 -0.374 0.054 -0.426 0.214s0.054 0.374 0.214 0.426l0 0C26.774 24.426 26.986 24.32 26.986 24.16z"/><path class="st20" d="M20.214 32.374c-0.534 -0.32 -1.174 -0.106 -1.494 0.374c-0.32 0.534 -0.106 1.174 0.374 1.494c0.534 0.32 1.174 0.106 1.494 -0.374C20.906 33.386 20.694 32.694 20.214 32.374L20.214 32.374z"/><path class="st20" d="M22.346 28.64c-0.32 -0.16 -0.746 -0.054 -0.906 0.266s-0.054 0.746 0.266 0.906c0.32 0.16 0.746 0.054 0.906 -0.266l0 0C22.774 29.226 22.666 28.8 22.346 28.64L22.346 28.64z"/><path class="st20" d="M23.626 26.454c0.266 0.16 0.534 0.054 0.694 -0.16s0.054 -0.534 -0.16 -0.694c-0.266 -0.16 -0.534 -0.054 -0.694 0.16l0 0C23.306 25.974 23.414 26.294 23.626 26.454z"/><path class="st20" d="M25.494 23.254c-0.16 -0.106 -0.32 -0.054 -0.374 0.106c-0.106 0.16 -0.054 0.32 0.106 0.374c0.16 0.106 0.32 0.054 0.374 -0.106C25.654 23.52 25.6 23.306 25.494 23.254C25.494 23.254 25.494 23.254 25.494 23.254z"/><path class="st21" d="M15.414 29.92c-0.374 0.374 -0.374 1.014 0 1.44s1.014 0.374 1.44 0c0.374 -0.374 0.374 -1.014 0 -1.44l0 0C16.48 29.546 15.84 29.546 15.414 29.92z"/><path class="st21" d="M19.094 26.88c-0.214 0.214 -0.214 0.586 0 0.8c0.214 0.214 0.586 0.214 0.8 0c0.214 -0.214 0.214 -0.586 0 -0.8l0 0C19.68 26.614 19.306 26.614 19.094 26.88L19.094 26.88z"/><path class="st21" d="M21.814 24.32c-0.16 0.16 -0.16 0.48 0 0.64s0.48 0.16 0.64 0c0.16 -0.16 0.16 -0.48 0 -0.64C22.294 24.106 21.974 24.106 21.814 24.32L21.814 24.32z"/><path class="st21" d="M24.374 22.4c-0.106 -0.106 -0.266 -0.106 -0.32 0c-0.106 0.106 -0.106 0.266 0 0.32c0.106 0.106 0.266 0.106 0.32 0C24.48 22.666 24.48 22.506 24.374 22.4z"/><path class="st22" d="M12.96 26.346c-0.426 0.266 -0.586 0.8 -0.32 1.28c0.266 0.426 0.8 0.586 1.28 0.32c0.426 -0.266 0.586 -0.8 0.32 -1.28C13.974 26.24 13.44 26.08 12.96 26.346L12.96 26.346z"/><path class="st22" d="M17.334 24.32c-0.214 0.16 -0.32 0.426 -0.16 0.694c0.16 0.214 0.426 0.32 0.694 0.16c0.214 -0.16 0.32 -0.426 0.16 -0.694C17.866 24.266 17.546 24.16 17.334 24.32L17.334 24.32z"/><path class="st22" d="M20.586 22.506c-0.214 0.106 -0.266 0.374 -0.16 0.586c0.106 0.214 0.374 0.266 0.586 0.16c0.214 -0.106 0.266 -0.374 0.16 -0.586C21.014 22.454 20.8 22.4 20.586 22.506L20.586 22.506z"/><path class="st23" d="M11.094 15.734h1.494v5.654h-1.494V15.734zM12 13.226c-0.48 -0.106 -0.906 0.16 -1.066 0.586s0.16 0.906 0.586 1.066s0.906 -0.16 1.066 -0.586C12.746 13.814 12.48 13.334 12 13.226L12 13.226L12 13.226zM17.12 21.546c-0.374 0 -0.694 -0.054 -1.066 -0.214c-0.32 -0.16 -0.534 -0.32 -0.746 -0.586v3.52h-1.44v-8.534h1.44V16.534c0.16 -0.266 0.426 -0.48 0.746 -0.64c0.32 -0.16 0.694 -0.266 1.066 -0.266c0.374 0 0.694 0.054 1.014 0.214c0.32 0.16 0.64 0.32 0.854 0.586c0.266 0.266 0.48 0.586 0.586 0.96c0.16 0.374 0.214 0.8 0.214 1.226c0 0.426 -0.054 0.854 -0.214 1.226c-0.16 0.32 -0.374 0.64 -0.64 0.96C18.506 21.28 17.866 21.546 17.12 21.546L17.12 21.546zM16.854 20.16c0.214 0 0.426 -0.054 0.64 -0.106c0.16 -0.106 0.374 -0.214 0.48 -0.32c0.16 -0.16 0.266 -0.32 0.32 -0.48c0.16 -0.426 0.16 -0.854 0 -1.28c-0.054 -0.16 -0.214 -0.374 -0.32 -0.48c-0.16 -0.16 -0.32 -0.266 -0.48 -0.32c-0.214 -0.106 -0.426 -0.106 -0.64 -0.106c-0.426 0 -0.8 0.16 -1.12 0.48c-0.16 0.16 -0.266 0.32 -0.32 0.48c-0.16 0.426 -0.16 0.854 0 1.226c0.054 0.16 0.16 0.374 0.32 0.48C16 20 16.426 20.16 16.854 20.16L16.854 20.16zM20.906 15.734h1.44v0.854c0.106 -0.32 0.32 -0.586 0.64 -0.746c0.32 -0.16 0.64 -0.266 0.96 -0.214c0.16 0 0.374 0 0.534 0.054c0.16 0.054 0.32 0.106 0.426 0.16l-0.534 1.44c-0.106 -0.054 -0.214 -0.106 -0.32 -0.16c-0.16 -0.054 -0.32 -0.054 -0.426 -0.054c-0.32 0 -0.64 0.106 -0.906 0.32c-0.214 0.214 -0.32 0.534 -0.32 1.014v2.986h-1.44L20.906 15.734zM28.054 21.546c-0.426 0 -0.8 -0.054 -1.174 -0.214c-0.374 -0.16 -0.694 -0.374 -0.96 -0.64c-0.534 -0.534 -0.854 -1.28 -0.854 -2.08c0 -0.374 0.054 -0.8 0.214 -1.174c0.16 -0.374 0.374 -0.694 0.64 -0.96c1.174 -1.174 3.094 -1.174 4.266 0c0.534 0.534 0.854 1.28 0.854 2.08c0 0.374 -0.054 0.8 -0.214 1.12c-0.16 0.374 -0.374 0.694 -0.64 0.96c-0.266 0.266 -0.586 0.48 -0.96 0.64C28.906 21.44 28.48 21.546 28.054 21.546L28.054 21.546zM28.106 20.16c0.214 0 0.426 -0.054 0.64 -0.106c0.16 -0.106 0.32 -0.214 0.48 -0.32c0.16 -0.16 0.266 -0.32 0.32 -0.48c0.16 -0.426 0.16 -0.854 0 -1.226c-0.054 -0.16 -0.16 -0.374 -0.32 -0.48c-0.16 -0.16 -0.32 -0.266 -0.48 -0.32c-0.374 -0.16 -0.854 -0.16 -1.226 0c-0.16 0.106 -0.32 0.214 -0.48 0.32c-0.16 0.16 -0.266 0.32 -0.32 0.48c-0.16 0.426 -0.16 0.854 0 1.226c0.054 0.16 0.16 0.374 0.32 0.48s0.32 0.266 0.48 0.32C27.68 20.106 27.894 20.16 28.106 20.16L28.106 20.16zM0.854 15.734h1.494l1.12 3.626L4.8 15.734h1.28l1.334 3.626l1.174 -3.626h1.494l-1.92 5.654h-1.386l-1.334 -3.68l-1.386 3.68H2.666L0.854 15.734z"/></g></svg>